<svg xmlns="http://www.w3.org/2000/svg" xmlns:xlink="http://www.w3.org/1999/xlink" width="500" zoomAndPan="magnify" viewBox="0 0 375 374.999991" height="500" preserveAspectRatio="xMidYMid meet" version="1.0"><defs><g></g><clipPath id="b577a5543a"><rect x="0" width="87" y="0" height="95"></rect></clipPath><clipPath id="eec3665f40"><path d="M 0.28125 21 L 46 21 L 46 79 L 0.28125 79 Z M 0.28125 21 " clip-rule="nonzero"></path></clipPath><clipPath id="1638ccde19"><rect x="0" width="181" y="0" height="87"></rect></clipPath><clipPath id="f90378c3b9"><path d="M 0.0390625 3 L 4 3 L 4 9 L 0.0390625 9 Z M 0.0390625 3 " clip-rule="nonzero"></path></clipPath><clipPath id="67d1ff5616"><rect x="0" width="46" y="0" height="11"></rect></clipPath><clipPath id="6c56af6e70"><path d="M 0.0390625 3 L 6 3 L 6 9 L 0.0390625 9 Z M 0.0390625 3 " clip-rule="nonzero"></path></clipPath><clipPath id="5cc9e2bccd"><rect x="0" width="31" y="0" height="11"></rect></clipPath></defs><rect x="-37.5" width="450" fill="#ffffff" y="-37.499999" height="449.999989" fill-opacity="1"></rect><rect x="-37.5" width="450" fill="#f6f4f0" y="-37.499999" height="449.999989" fill-opacity="1"></rect><g transform="matrix(1, 0, 0, 1, 63, 140)"><g clip-path="url(#b577a5543a)"><g fill="#0052c9" fill-opacity="1"><g transform="translate(0.936939, 71.051046)"><g><path d="M 29.609375 0 L 1.703125 0 C 1.703125 -3.394531 2.203125 -6.945312 3.203125 -10.65625 C 4.210938 -14.363281 5.519531 -18.039062 7.125 -21.6875 C 8.726562 -25.332031 10.425781 -28.757812 12.21875 -31.96875 C 14.007812 -35.175781 15.691406 -37.972656 17.265625 -40.359375 C 18.328125 -41.992188 19.488281 -43.628906 20.75 -45.265625 C 22.007812 -46.898438 23.234375 -48.472656 24.421875 -49.984375 C 23.234375 -53.941406 22.070312 -56.925781 20.9375 -58.9375 C 19.800781 -60.957031 18.164062 -61.96875 16.03125 -61.96875 L 16.03125 -64.421875 C 20.8125 -64.421875 25.007812 -63.789062 28.625 -62.53125 C 32.238281 -61.269531 35.347656 -59.601562 37.953125 -57.53125 C 40.566406 -55.457031 42.722656 -53.128906 44.421875 -50.546875 C 46.117188 -47.972656 47.40625 -45.363281 48.28125 -42.71875 C 50.300781 -36.6875 51.96875 -30.9375 53.28125 -25.46875 C 54.601562 -20 56.207031 -15.0625 58.09375 -10.65625 C 59.289062 -7.957031 60.910156 -6.460938 62.953125 -6.171875 C 64.992188 -5.890625 66.769531 -6.535156 68.28125 -8.109375 L 69.890625 -6.40625 C 68.003906 -3.769531 65.691406 -1.929688 62.953125 -0.890625 C 60.210938 0.140625 57.648438 0.65625 55.265625 0.65625 C 51.804688 0.65625 48.675781 -0.191406 45.875 -1.890625 C 43.082031 -3.585938 40.710938 -5.800781 38.765625 -8.53125 C 36.816406 -11.269531 35.304688 -14.179688 34.234375 -17.265625 L 20.1875 -17.265625 C 21.25 -13.867188 22.613281 -10.660156 24.28125 -7.640625 C 25.945312 -4.617188 27.722656 -2.070312 29.609375 0 Z M 33.484375 -19.515625 C 32.097656 -23.859375 30.726562 -28.484375 29.375 -33.390625 C 28.019531 -38.296875 26.65625 -42.945312 25.28125 -47.34375 C 24.707031 -46.53125 24.140625 -45.742188 23.578125 -44.984375 C 23.015625 -44.234375 22.445312 -43.414062 21.875 -42.53125 C 19.738281 -39.320312 18.578125 -35.691406 18.390625 -31.640625 C 18.203125 -27.585938 18.609375 -23.546875 19.609375 -19.515625 Z M 33.484375 -19.515625 "></path></g></g></g><g fill="#0052c9" fill-opacity="1"><g transform="translate(62.052952, 71.051046)"><g><path d="M 22.828125 0 L 2.171875 0 L 2.171875 -63.9375 L 22.828125 -63.9375 Z M 22.828125 0 "></path></g></g></g></g></g><g transform="matrix(1, 0, 0, 1, 149, 144)"><g clip-path="url(#1638ccde19)"><g clip-path="url(#eec3665f40)"><g fill="#0a0a0a" fill-opacity="1"><g transform="translate(1.290927, 60.820461)"><g><path d="M 24.890625 -39.21875 C 27.640625 -39.21875 30.1875 -38.390625 32.53125 -36.734375 L 43.859375 -36.734375 L 42.484375 -32.015625 L 35.625 -32.015625 C 36.132812 -30.640625 36.390625 -29.265625 36.390625 -27.890625 C 36.390625 -25.429688 35.660156 -23.070312 34.203125 -20.8125 C 32.742188 -18.550781 30.710938 -16.703125 28.109375 -15.265625 C 25.503906 -13.835938 22.570312 -13.066406 19.3125 -12.953125 C 17.769531 -12.441406 16.351562 -11.769531 15.0625 -10.9375 C 13.769531 -10.113281 13.125 -9.300781 13.125 -8.5 C 13.125 -7.695312 13.640625 -7.082031 14.671875 -6.65625 C 15.703125 -6.226562 17.765625 -5.613281 20.859375 -4.8125 C 21.253906 -4.75 21.851562 -4.601562 22.65625 -4.375 C 30.320312 -2.488281 34.15625 0.65625 34.15625 5.0625 C 34.15625 7.40625 33.335938 9.519531 31.703125 11.40625 C 30.078125 13.300781 27.832031 14.804688 24.96875 15.921875 C 22.113281 17.035156 18.910156 17.59375 15.359375 17.59375 C 10.835938 17.59375 7.019531 16.773438 3.90625 15.140625 C 0.789062 13.515625 -0.765625 11.328125 -0.765625 8.578125 C -0.765625 7.773438 -0.59375 6.972656 -0.25 6.171875 C 0.0820312 5.378906 0.992188 4.28125 2.484375 2.875 C 3.972656 1.46875 6.265625 -0.203125 9.359375 -2.140625 C 7.984375 -3.054688 7.296875 -4.203125 7.296875 -5.578125 C 7.296875 -7.117188 7.953125 -8.429688 9.265625 -9.515625 C 10.585938 -10.609375 12.707031 -11.957031 15.625 -13.5625 C 12.875 -14.414062 10.710938 -15.703125 9.140625 -17.421875 C 7.566406 -19.140625 6.78125 -21.285156 6.78125 -23.859375 C 6.78125 -26.722656 7.664062 -29.328125 9.4375 -31.671875 C 11.21875 -34.015625 13.507812 -35.859375 16.3125 -37.203125 C 19.113281 -38.546875 21.972656 -39.21875 24.890625 -39.21875 Z M 13.984375 -21.625 C 13.984375 -20.195312 14.457031 -18.738281 15.40625 -17.25 C 16.351562 -15.757812 17.769531 -15.015625 19.65625 -15.015625 C 21.601562 -15.015625 23.304688 -15.898438 24.765625 -17.671875 C 26.222656 -19.453125 27.335938 -21.613281 28.109375 -24.15625 C 28.878906 -26.707031 29.265625 -29.066406 29.265625 -31.234375 C 29.265625 -32.953125 28.847656 -34.351562 28.015625 -35.4375 C 27.191406 -36.53125 25.953125 -37.078125 24.296875 -37.078125 C 21.941406 -37.078125 19.992188 -36.128906 18.453125 -34.234375 C 16.910156 -32.347656 15.78125 -30.175781 15.0625 -27.71875 C 14.34375 -25.257812 13.984375 -23.226562 13.984375 -21.625 Z M 4.296875 7.984375 C 4.296875 10.273438 5.46875 12.101562 7.8125 13.46875 C 10.15625 14.84375 12.875 15.53125 15.96875 15.53125 C 17.789062 15.53125 19.703125 15.257812 21.703125 14.71875 C 23.710938 14.175781 25.429688 13.316406 26.859375 12.140625 C 28.296875 10.972656 29.015625 9.5 29.015625 7.71875 C 29.015625 6.351562 28.453125 5.195312 27.328125 4.25 C 26.210938 3.300781 24.882812 2.554688 23.34375 2.015625 C 21.800781 1.472656 19.6875 0.859375 17 0.171875 C 14.132812 -0.515625 12.128906 -1.085938 10.984375 -1.546875 C 8.921875 -0.0546875 7.289062 1.398438 6.09375 2.828125 C 4.894531 4.265625 4.296875 5.984375 4.296875 7.984375 Z M 4.296875 7.984375 "></path></g></g></g></g><g fill="#0a0a0a" fill-opacity="1"><g transform="translate(38.198169, 60.820461)"><g><path d="M 27.8125 -39.21875 C 30.207031 -39.21875 32.222656 -38.617188 33.859375 -37.421875 C 35.492188 -36.222656 36.3125 -34.675781 36.3125 -32.78125 C 36.3125 -30.957031 35.453125 -28.867188 33.734375 -26.515625 C 32.015625 -24.171875 29.222656 -22.097656 25.359375 -20.296875 C 21.492188 -18.492188 16.585938 -17.507812 10.640625 -17.34375 C 10.296875 -16.195312 10.125 -14.789062 10.125 -13.125 C 10.125 -9.632812 11.066406 -7.101562 12.953125 -5.53125 C 14.847656 -3.957031 16.9375 -3.171875 19.21875 -3.171875 C 23.050781 -3.171875 26.941406 -5.085938 30.890625 -8.921875 L 32.015625 -7.890625 C 25.890625 -1.941406 19.96875 1.03125 14.25 1.03125 C 11.90625 1.03125 9.859375 0.445312 8.109375 -0.71875 C 6.367188 -1.894531 5.050781 -3.425781 4.15625 -5.3125 C 3.269531 -7.207031 2.828125 -9.15625 2.828125 -11.15625 C 2.828125 -15.164062 3.984375 -19.375 6.296875 -23.78125 C 8.617188 -28.1875 11.710938 -31.859375 15.578125 -34.796875 C 19.441406 -37.742188 23.519531 -39.21875 27.8125 -39.21875 Z M 11.15625 -18.96875 C 15.050781 -19.25 18.195312 -19.90625 20.59375 -20.9375 C 22.945312 -21.96875 24.851562 -23.296875 26.3125 -24.921875 C 27.769531 -26.554688 28.8125 -28.160156 29.4375 -29.734375 C 30.070312 -31.304688 30.390625 -32.609375 30.390625 -33.640625 C 30.390625 -34.617188 30.03125 -35.519531 29.3125 -36.34375 C 28.59375 -37.175781 27.578125 -37.59375 26.265625 -37.59375 C 23.972656 -37.59375 21.753906 -36.53125 19.609375 -34.40625 C 17.460938 -32.289062 15.628906 -29.773438 14.109375 -26.859375 C 12.597656 -23.941406 11.613281 -21.3125 11.15625 -18.96875 Z M 11.15625 -18.96875 "></path></g></g></g><g fill="#0a0a0a" fill-opacity="1"><g transform="translate(69.783889, 60.820461)"><g><path d="M 13.46875 -19.3125 C 17.070312 -25.257812 20.707031 -30.0625 24.375 -33.71875 C 28.039062 -37.382812 31.445312 -39.21875 34.59375 -39.21875 C 35.90625 -39.21875 37.003906 -38.773438 37.890625 -37.890625 C 38.773438 -37.003906 39.21875 -35.734375 39.21875 -34.078125 C 39.21875 -32.523438 38.816406 -30.289062 38.015625 -27.375 L 32.609375 -8.84375 C 32.097656 -7.007812 31.84375 -5.75 31.84375 -5.0625 C 31.84375 -4.550781 31.96875 -4.179688 32.21875 -3.953125 C 32.476562 -3.722656 32.753906 -3.609375 33.046875 -3.609375 C 33.734375 -3.609375 34.789062 -4.347656 36.21875 -5.828125 C 37.644531 -7.316406 38.617188 -8.492188 39.140625 -9.359375 L 40.421875 -8.328125 C 38.648438 -5.867188 36.660156 -3.691406 34.453125 -1.796875 C 32.253906 0.0859375 30.179688 1.03125 28.234375 1.03125 C 27.316406 1.03125 26.539062 0.675781 25.90625 -0.03125 C 25.28125 -0.75 24.96875 -1.710938 24.96875 -2.921875 C 24.96875 -4.179688 25.285156 -5.867188 25.921875 -7.984375 L 31.75 -28.5 C 31.8125 -28.664062 31.957031 -29.132812 32.1875 -29.90625 C 32.414062 -30.675781 32.53125 -31.4375 32.53125 -32.1875 C 32.53125 -32.925781 32.328125 -33.492188 31.921875 -33.890625 C 31.523438 -34.296875 31.097656 -34.5 30.640625 -34.5 C 29.328125 -34.5 27.425781 -33.382812 24.9375 -31.15625 C 22.445312 -28.925781 20.03125 -26.125 17.6875 -22.75 C 15.675781 -19.9375 14.054688 -17.34375 12.828125 -14.96875 C 11.597656 -12.601562 10.5 -9.726562 9.53125 -6.34375 C 8.78125 -3.882812 8.175781 -1.769531 7.71875 0 L 1.109375 0 L 9.265625 -28.578125 C 9.328125 -28.753906 9.53125 -29.484375 9.875 -30.765625 C 10.21875 -32.054688 10.390625 -32.988281 10.390625 -33.5625 C 10.390625 -34.25 10.144531 -34.773438 9.65625 -35.140625 C 9.164062 -35.515625 8.519531 -35.703125 7.71875 -35.703125 C 6.914062 -35.703125 5.773438 -35.644531 4.296875 -35.53125 L 4.296875 -37.078125 L 17.421875 -39.21875 L 18.96875 -39.21875 L 13.296875 -19.484375 Z M 13.46875 -19.3125 "></path></g></g></g><g fill="#0a0a0a" fill-opacity="1"><g transform="translate(106.69113, 60.820461)"><g><path d="M 28.75 -39.21875 C 30.8125 -39.21875 32.613281 -38.617188 34.15625 -37.421875 C 35.707031 -36.222656 36.484375 -34.5625 36.484375 -32.4375 C 36.484375 -30.84375 36.023438 -29.5 35.109375 -28.40625 C 34.191406 -27.320312 33.160156 -26.78125 32.015625 -26.78125 C 31.210938 -26.78125 30.523438 -27.066406 29.953125 -27.640625 C 29.378906 -28.210938 29.09375 -28.925781 29.09375 -29.78125 C 29.09375 -30.519531 29.234375 -31.085938 29.515625 -31.484375 C 29.804688 -31.890625 30.238281 -32.351562 30.8125 -32.875 C 31.320312 -33.332031 31.675781 -33.6875 31.875 -33.9375 C 32.082031 -34.195312 32.1875 -34.554688 32.1875 -35.015625 C 32.1875 -35.929688 31.800781 -36.601562 31.03125 -37.03125 C 30.257812 -37.457031 29.441406 -37.671875 28.578125 -37.671875 C 25.546875 -37.671875 22.695312 -36.226562 20.03125 -33.34375 C 17.375 -30.457031 15.242188 -26.992188 13.640625 -22.953125 C 12.046875 -18.921875 11.25 -15.445312 11.25 -12.53125 C 11.25 -9.5 11.988281 -7.050781 13.46875 -5.1875 C 14.957031 -3.332031 16.90625 -2.40625 19.3125 -2.40625 C 21.65625 -2.40625 23.867188 -3.117188 25.953125 -4.546875 C 28.046875 -5.972656 29.835938 -7.660156 31.328125 -9.609375 L 32.609375 -8.75 C 27.179688 -2.226562 21.460938 1.03125 15.453125 1.03125 C 11.898438 1.03125 9.125 -0.210938 7.125 -2.703125 C 5.125 -5.191406 4.125 -8.15625 4.125 -11.59375 C 4.125 -15.769531 5.3125 -20.015625 7.6875 -24.328125 C 10.0625 -28.648438 13.164062 -32.210938 17 -35.015625 C 20.832031 -37.816406 24.75 -39.21875 28.75 -39.21875 Z M 28.75 -39.21875 "></path></g></g></g><g fill="#0a0a0a" fill-opacity="1"><g transform="translate(138.27685, 60.820461)"><g><path d="M 20.765625 -29.265625 L 22.0625 -4.296875 C 26.0625 -9.210938 29.691406 -14.144531 32.953125 -19.09375 C 36.210938 -24.039062 37.84375 -27.660156 37.84375 -29.953125 C 37.84375 -30.296875 37.710938 -30.566406 37.453125 -30.765625 C 37.203125 -30.960938 36.789062 -31.207031 36.21875 -31.5 C 35.25 -31.894531 34.476562 -32.378906 33.90625 -32.953125 C 33.332031 -33.523438 33.046875 -34.414062 33.046875 -35.625 C 33.046875 -36.644531 33.398438 -37.5 34.109375 -38.1875 C 34.828125 -38.875 35.644531 -39.21875 36.5625 -39.21875 C 37.59375 -39.21875 38.609375 -38.789062 39.609375 -37.9375 C 40.609375 -37.082031 41.109375 -35.453125 41.109375 -33.046875 C 41.109375 -30.867188 40.445312 -28.519531 39.125 -26 C 37.8125 -23.488281 35.726562 -20.085938 32.875 -15.796875 C 29.726562 -11.097656 25.804688 -5.816406 21.109375 0.046875 C 16.421875 5.910156 12.644531 10.328125 9.78125 13.296875 C 6.46875 16.679688 3.460938 18.375 0.765625 18.375 C -0.140625 18.375 -0.953125 18.039062 -1.671875 17.375 C -2.390625 16.71875 -2.75 15.960938 -2.75 15.109375 C -2.75 14.015625 -2.289062 12.992188 -1.375 12.046875 C -0.457031 11.109375 0.570312 10.640625 1.71875 10.640625 C 2.226562 10.640625 2.597656 10.78125 2.828125 11.0625 C 3.054688 11.351562 3.34375 11.785156 3.6875 12.359375 C 4.09375 13.273438 4.523438 13.734375 4.984375 13.734375 C 5.492188 13.734375 6.632812 13.015625 8.40625 11.578125 C 10.1875 10.148438 12.789062 7.289062 16.21875 3 L 14.84375 -23.953125 C 14.675781 -26.804688 14.476562 -28.988281 14.25 -30.5 C 14.019531 -32.019531 13.519531 -33.238281 12.75 -34.15625 C 11.976562 -35.070312 10.789062 -35.53125 9.1875 -35.53125 C 8.09375 -35.53125 7.085938 -35.414062 6.171875 -35.1875 L 5.75 -36.734375 L 18.453125 -39.21875 C 19.304688 -37.90625 19.875 -36.472656 20.15625 -34.921875 C 20.445312 -33.378906 20.648438 -31.492188 20.765625 -29.265625 Z M 20.765625 -29.265625 "></path></g></g></g></g></g><g transform="matrix(1, 0, 0, 1, 209, 226)"><g clip-path="url(#67d1ff5616)"><g clip-path="url(#f90378c3b9)"><g fill="#0a0a0a" fill-opacity="1"><g transform="translate(0.116441, 8.40501)"><g><path d="M 2.53125 0 L 1.484375 0 L 1.484375 -4.078125 L 0.140625 -4.078125 L 0.140625 -4.953125 L 3.875 -4.953125 L 3.875 -4.078125 L 2.53125 -4.078125 Z M 2.53125 0 "></path></g></g></g></g><g fill="#0a0a0a" fill-opacity="1"><g transform="translate(3.778837, 8.40501)"><g><path d="M 3.46875 0 L 0.625 0 L 0.625 -4.953125 L 3.46875 -4.953125 L 3.46875 -4.09375 L 1.671875 -4.09375 L 1.671875 -3 L 3.34375 -3 L 3.34375 -2.140625 L 1.671875 -2.140625 L 1.671875 -0.875 L 3.46875 -0.875 Z M 3.46875 0 "></path></g></g></g><g fill="#0a0a0a" fill-opacity="1"><g transform="translate(7.30917, 8.40501)"><g><path d="M 2.734375 -4.15625 C 2.523438 -4.15625 2.34375 -4.113281 2.1875 -4.03125 C 2.039062 -3.957031 1.910156 -3.84375 1.796875 -3.6875 C 1.691406 -3.539062 1.613281 -3.363281 1.5625 -3.15625 C 1.507812 -2.957031 1.484375 -2.726562 1.484375 -2.46875 C 1.484375 -2.113281 1.523438 -1.8125 1.609375 -1.5625 C 1.703125 -1.320312 1.835938 -1.132812 2.015625 -1 C 2.203125 -0.875 2.441406 -0.8125 2.734375 -0.8125 C 2.929688 -0.8125 3.128906 -0.832031 3.328125 -0.875 C 3.535156 -0.914062 3.753906 -0.976562 3.984375 -1.0625 L 3.984375 -0.1875 C 3.765625 -0.09375 3.550781 -0.03125 3.34375 0 C 3.132812 0.0390625 2.894531 0.0625 2.625 0.0625 C 2.113281 0.0625 1.691406 -0.0390625 1.359375 -0.25 C 1.035156 -0.457031 0.796875 -0.75 0.640625 -1.125 C 0.484375 -1.507812 0.40625 -1.957031 0.40625 -2.46875 C 0.40625 -2.84375 0.453125 -3.1875 0.546875 -3.5 C 0.648438 -3.8125 0.800781 -4.082031 1 -4.3125 C 1.195312 -4.539062 1.441406 -4.71875 1.734375 -4.84375 C 2.023438 -4.96875 2.359375 -5.03125 2.734375 -5.03125 C 2.972656 -5.03125 3.21875 -5 3.46875 -4.9375 C 3.71875 -4.875 3.953125 -4.785156 4.171875 -4.671875 L 3.84375 -3.828125 C 3.65625 -3.910156 3.46875 -3.984375 3.28125 -4.046875 C 3.09375 -4.117188 2.910156 -4.15625 2.734375 -4.15625 Z M 2.734375 -4.15625 "></path></g></g></g><g fill="#0a0a0a" fill-opacity="1"><g transform="translate(11.374529, 8.40501)"><g><path d="M 4.6875 0 L 3.640625 0 L 3.640625 -2.140625 L 1.671875 -2.140625 L 1.671875 0 L 0.625 0 L 0.625 -4.953125 L 1.671875 -4.953125 L 1.671875 -3.015625 L 3.640625 -3.015625 L 3.640625 -4.953125 L 4.6875 -4.953125 Z M 4.6875 0 "></path></g></g></g><g fill="#0a0a0a" fill-opacity="1"><g transform="translate(16.327084, 8.40501)"><g><path d="M 5.015625 0 L 3.6875 0 L 1.53125 -3.75 L 1.5 -3.75 C 1.507812 -3.59375 1.515625 -3.429688 1.515625 -3.265625 C 1.523438 -3.109375 1.53125 -2.953125 1.53125 -2.796875 C 1.539062 -2.640625 1.550781 -2.484375 1.5625 -2.328125 L 1.5625 0 L 0.625 0 L 0.625 -4.953125 L 1.953125 -4.953125 L 4.09375 -1.25 L 4.125 -1.25 C 4.113281 -1.394531 4.101562 -1.539062 4.09375 -1.6875 C 4.09375 -1.84375 4.085938 -1.992188 4.078125 -2.140625 C 4.078125 -2.296875 4.078125 -2.453125 4.078125 -2.609375 L 4.078125 -4.953125 L 5.015625 -4.953125 Z M 5.015625 0 "></path></g></g></g><g fill="#0a0a0a" fill-opacity="1"><g transform="translate(21.61149, 8.40501)"><g><path d="M 5.125 -2.484375 C 5.125 -2.097656 5.070312 -1.75 4.96875 -1.4375 C 4.875 -1.125 4.726562 -0.851562 4.53125 -0.625 C 4.34375 -0.40625 4.097656 -0.234375 3.796875 -0.109375 C 3.503906 0.00390625 3.160156 0.0625 2.765625 0.0625 C 2.359375 0.0625 2.003906 0.00390625 1.703125 -0.109375 C 1.410156 -0.234375 1.164062 -0.40625 0.96875 -0.625 C 0.78125 -0.851562 0.640625 -1.125 0.546875 -1.4375 C 0.453125 -1.75 0.40625 -2.097656 0.40625 -2.484375 C 0.40625 -3.003906 0.488281 -3.453125 0.65625 -3.828125 C 0.820312 -4.210938 1.078125 -4.507812 1.421875 -4.71875 C 1.773438 -4.925781 2.222656 -5.03125 2.765625 -5.03125 C 3.304688 -5.03125 3.75 -4.925781 4.09375 -4.71875 C 4.4375 -4.507812 4.691406 -4.210938 4.859375 -3.828125 C 5.035156 -3.441406 5.125 -2.992188 5.125 -2.484375 Z M 1.5 -2.484375 C 1.5 -2.140625 1.539062 -1.84375 1.625 -1.59375 C 1.71875 -1.34375 1.859375 -1.148438 2.046875 -1.015625 C 2.234375 -0.878906 2.472656 -0.8125 2.765625 -0.8125 C 3.054688 -0.8125 3.296875 -0.878906 3.484375 -1.015625 C 3.671875 -1.148438 3.804688 -1.34375 3.890625 -1.59375 C 3.972656 -1.84375 4.015625 -2.140625 4.015625 -2.484375 C 4.015625 -3.003906 3.914062 -3.410156 3.71875 -3.703125 C 3.53125 -4.003906 3.210938 -4.15625 2.765625 -4.15625 C 2.472656 -4.15625 2.234375 -4.085938 2.046875 -3.953125 C 1.859375 -3.816406 1.71875 -3.625 1.625 -3.375 C 1.539062 -3.125 1.5 -2.828125 1.5 -2.484375 Z M 1.5 -2.484375 "></path></g></g></g><g fill="#0a0a0a" fill-opacity="1"><g transform="translate(26.777377, 8.40501)"><g><path d="M 0.625 0 L 0.625 -4.953125 L 1.671875 -4.953125 L 1.671875 -0.875 L 3.6875 -0.875 L 3.6875 0 Z M 0.625 0 "></path></g></g></g><g fill="#0a0a0a" fill-opacity="1"><g transform="translate(30.341573, 8.40501)"><g><path d="M 5.125 -2.484375 C 5.125 -2.097656 5.070312 -1.75 4.96875 -1.4375 C 4.875 -1.125 4.726562 -0.851562 4.53125 -0.625 C 4.34375 -0.40625 4.097656 -0.234375 3.796875 -0.109375 C 3.503906 0.00390625 3.160156 0.0625 2.765625 0.0625 C 2.359375 0.0625 2.003906 0.00390625 1.703125 -0.109375 C 1.410156 -0.234375 1.164062 -0.40625 0.96875 -0.625 C 0.78125 -0.851562 0.640625 -1.125 0.546875 -1.4375 C 0.453125 -1.75 0.40625 -2.097656 0.40625 -2.484375 C 0.40625 -3.003906 0.488281 -3.453125 0.65625 -3.828125 C 0.820312 -4.210938 1.078125 -4.507812 1.421875 -4.71875 C 1.773438 -4.925781 2.222656 -5.03125 2.765625 -5.03125 C 3.304688 -5.03125 3.75 -4.925781 4.09375 -4.71875 C 4.4375 -4.507812 4.691406 -4.210938 4.859375 -3.828125 C 5.035156 -3.441406 5.125 -2.992188 5.125 -2.484375 Z M 1.5 -2.484375 C 1.5 -2.140625 1.539062 -1.84375 1.625 -1.59375 C 1.71875 -1.34375 1.859375 -1.148438 2.046875 -1.015625 C 2.234375 -0.878906 2.472656 -0.8125 2.765625 -0.8125 C 3.054688 -0.8125 3.296875 -0.878906 3.484375 -1.015625 C 3.671875 -1.148438 3.804688 -1.34375 3.890625 -1.59375 C 3.972656 -1.84375 4.015625 -2.140625 4.015625 -2.484375 C 4.015625 -3.003906 3.914062 -3.410156 3.71875 -3.703125 C 3.53125 -4.003906 3.210938 -4.15625 2.765625 -4.15625 C 2.472656 -4.15625 2.234375 -4.085938 2.046875 -3.953125 C 1.859375 -3.816406 1.71875 -3.625 1.625 -3.375 C 1.539062 -3.125 1.5 -2.828125 1.5 -2.484375 Z M 1.5 -2.484375 "></path></g></g></g><g fill="#0a0a0a" fill-opacity="1"><g transform="translate(35.50746, 8.40501)"><g><path d="M 2.5 -2.78125 L 4.46875 -2.78125 L 4.46875 -0.21875 C 4.207031 -0.125 3.9375 -0.0507812 3.65625 0 C 3.375 0.0390625 3.054688 0.0625 2.703125 0.0625 C 2.210938 0.0625 1.796875 -0.03125 1.453125 -0.21875 C 1.109375 -0.414062 0.847656 -0.703125 0.671875 -1.078125 C 0.492188 -1.460938 0.40625 -1.929688 0.40625 -2.484375 C 0.40625 -3.003906 0.503906 -3.453125 0.703125 -3.828125 C 0.898438 -4.210938 1.191406 -4.507812 1.578125 -4.71875 C 1.960938 -4.925781 2.429688 -5.03125 2.984375 -5.03125 C 3.253906 -5.03125 3.515625 -5 3.765625 -4.9375 C 4.023438 -4.882812 4.257812 -4.8125 4.46875 -4.71875 L 4.109375 -3.875 C 3.960938 -3.957031 3.789062 -4.023438 3.59375 -4.078125 C 3.394531 -4.128906 3.191406 -4.15625 2.984375 -4.15625 C 2.679688 -4.15625 2.414062 -4.082031 2.1875 -3.9375 C 1.96875 -3.800781 1.796875 -3.601562 1.671875 -3.34375 C 1.546875 -3.09375 1.484375 -2.800781 1.484375 -2.46875 C 1.484375 -2.144531 1.523438 -1.859375 1.609375 -1.609375 C 1.703125 -1.359375 1.84375 -1.160156 2.03125 -1.015625 C 2.21875 -0.878906 2.46875 -0.8125 2.78125 -0.8125 C 2.925781 -0.8125 3.050781 -0.816406 3.15625 -0.828125 C 3.257812 -0.835938 3.351562 -0.851562 3.4375 -0.875 L 3.4375 -1.90625 L 2.5 -1.90625 Z M 2.5 -2.78125 "></path></g></g></g><g fill="#0a0a0a" fill-opacity="1"><g transform="translate(40.17557, 8.40501)"><g><path d="M 2.171875 -2.90625 L 3.203125 -4.953125 L 4.328125 -4.953125 L 2.6875 -1.921875 L 2.6875 0 L 1.640625 0 L 1.640625 -1.890625 L 0 -4.953125 L 1.140625 -4.953125 Z M 2.171875 -2.90625 "></path></g></g></g></g></g><g transform="matrix(1, 0, 0, 1, 209, 234)"><g clip-path="url(#5cc9e2bccd)"><g clip-path="url(#6c56af6e70)"><g fill="#0a0a0a" fill-opacity="1"><g transform="translate(0.116441, 8.380278)"><g><path d="M 2.15625 -5.03125 C 2.414062 -5.03125 2.648438 -4.984375 2.859375 -4.890625 C 3.066406 -4.804688 3.226562 -4.6875 3.34375 -4.53125 C 3.46875 -4.375 3.53125 -4.179688 3.53125 -3.953125 C 3.53125 -3.628906 3.4375 -3.359375 3.25 -3.140625 C 3.0625 -2.921875 2.828125 -2.734375 2.546875 -2.578125 L 3.515625 -1.640625 C 3.609375 -1.796875 3.6875 -1.957031 3.75 -2.125 C 3.8125 -2.300781 3.867188 -2.476562 3.921875 -2.65625 L 5 -2.65625 C 4.925781 -2.394531 4.820312 -2.113281 4.6875 -1.8125 C 4.5625 -1.519531 4.394531 -1.25 4.1875 -1 L 5.203125 0 L 3.921875 0 L 3.53125 -0.375 C 3.40625 -0.289062 3.265625 -0.210938 3.109375 -0.140625 C 2.953125 -0.078125 2.785156 -0.03125 2.609375 0 C 2.441406 0.0390625 2.265625 0.0625 2.078125 0.0625 C 1.703125 0.0625 1.378906 0.00390625 1.109375 -0.109375 C 0.835938 -0.222656 0.628906 -0.382812 0.484375 -0.59375 C 0.347656 -0.8125 0.28125 -1.0625 0.28125 -1.34375 C 0.28125 -1.570312 0.316406 -1.769531 0.390625 -1.9375 C 0.460938 -2.101562 0.566406 -2.25 0.703125 -2.375 C 0.835938 -2.507812 1 -2.628906 1.1875 -2.734375 C 1.0625 -2.878906 0.960938 -3.007812 0.890625 -3.125 C 0.828125 -3.25 0.78125 -3.367188 0.75 -3.484375 C 0.71875 -3.609375 0.703125 -3.738281 0.703125 -3.875 C 0.703125 -4.113281 0.765625 -4.316406 0.890625 -4.484375 C 1.015625 -4.660156 1.179688 -4.796875 1.390625 -4.890625 C 1.609375 -4.984375 1.863281 -5.03125 2.15625 -5.03125 Z M 1.78125 -2.125 C 1.695312 -2.0625 1.625 -1.992188 1.5625 -1.921875 C 1.5 -1.847656 1.445312 -1.769531 1.40625 -1.6875 C 1.375 -1.613281 1.359375 -1.53125 1.359375 -1.4375 C 1.359375 -1.238281 1.429688 -1.082031 1.578125 -0.96875 C 1.734375 -0.851562 1.921875 -0.796875 2.140625 -0.796875 C 2.296875 -0.796875 2.4375 -0.8125 2.5625 -0.84375 C 2.6875 -0.882812 2.800781 -0.9375 2.90625 -1 Z M 2.140625 -4.21875 C 2.023438 -4.21875 1.914062 -4.1875 1.8125 -4.125 C 1.707031 -4.070312 1.65625 -3.96875 1.65625 -3.8125 C 1.65625 -3.695312 1.679688 -3.582031 1.734375 -3.46875 C 1.796875 -3.363281 1.878906 -3.257812 1.984375 -3.15625 C 2.171875 -3.257812 2.316406 -3.363281 2.421875 -3.46875 C 2.523438 -3.570312 2.578125 -3.695312 2.578125 -3.84375 C 2.578125 -3.976562 2.53125 -4.070312 2.4375 -4.125 C 2.34375 -4.1875 2.242188 -4.21875 2.140625 -4.21875 Z M 2.140625 -4.21875 "></path></g></g></g></g><g fill="#0a0a0a" fill-opacity="1"><g transform="translate(4.964022, 8.380278)"><g></g></g></g><g fill="#0a0a0a" fill-opacity="1"><g transform="translate(6.411816, 8.380278)"><g><path d="M 4.734375 -2.53125 C 4.734375 -1.96875 4.625 -1.5 4.40625 -1.125 C 4.195312 -0.75 3.890625 -0.46875 3.484375 -0.28125 C 3.078125 -0.09375 2.59375 0 2.03125 0 L 0.625 0 L 0.625 -4.953125 L 2.171875 -4.953125 C 2.691406 -4.953125 3.144531 -4.859375 3.53125 -4.671875 C 3.914062 -4.492188 4.210938 -4.222656 4.421875 -3.859375 C 4.628906 -3.492188 4.734375 -3.050781 4.734375 -2.53125 Z M 3.640625 -2.5 C 3.640625 -2.863281 3.582031 -3.160156 3.46875 -3.390625 C 3.363281 -3.628906 3.207031 -3.804688 3 -3.921875 C 2.789062 -4.035156 2.535156 -4.09375 2.234375 -4.09375 L 1.671875 -4.09375 L 1.671875 -0.875 L 2.125 -0.875 C 2.632812 -0.875 3.015625 -1.007812 3.265625 -1.28125 C 3.515625 -1.550781 3.640625 -1.957031 3.640625 -2.5 Z M 3.640625 -2.5 "></path></g></g></g><g fill="#0a0a0a" fill-opacity="1"><g transform="translate(11.191672, 8.380278)"><g><path d="M 3.46875 0 L 0.625 0 L 0.625 -4.953125 L 3.46875 -4.953125 L 3.46875 -4.09375 L 1.671875 -4.09375 L 1.671875 -3 L 3.34375 -3 L 3.34375 -2.140625 L 1.671875 -2.140625 L 1.671875 -0.875 L 3.46875 -0.875 Z M 3.46875 0 "></path></g></g></g><g fill="#0a0a0a" fill-opacity="1"><g transform="translate(14.722005, 8.380278)"><g><path d="M 3.546875 -1.375 C 3.546875 -1.082031 3.472656 -0.828125 3.328125 -0.609375 C 3.191406 -0.390625 2.984375 -0.222656 2.703125 -0.109375 C 2.429688 0.00390625 2.101562 0.0625 1.71875 0.0625 C 1.550781 0.0625 1.382812 0.0507812 1.21875 0.03125 C 1.050781 0.0078125 0.890625 -0.0195312 0.734375 -0.0625 C 0.585938 -0.101562 0.445312 -0.160156 0.3125 -0.234375 L 0.3125 -1.203125 C 0.550781 -1.097656 0.796875 -1.003906 1.046875 -0.921875 C 1.296875 -0.835938 1.546875 -0.796875 1.796875 -0.796875 C 1.972656 -0.796875 2.113281 -0.816406 2.21875 -0.859375 C 2.320312 -0.910156 2.394531 -0.972656 2.4375 -1.046875 C 2.488281 -1.128906 2.515625 -1.222656 2.515625 -1.328125 C 2.515625 -1.453125 2.472656 -1.554688 2.390625 -1.640625 C 2.304688 -1.734375 2.191406 -1.816406 2.046875 -1.890625 C 1.898438 -1.960938 1.738281 -2.046875 1.5625 -2.140625 C 1.4375 -2.191406 1.304688 -2.253906 1.171875 -2.328125 C 1.035156 -2.410156 0.90625 -2.507812 0.78125 -2.625 C 0.664062 -2.738281 0.566406 -2.875 0.484375 -3.03125 C 0.410156 -3.195312 0.375 -3.390625 0.375 -3.609375 C 0.375 -3.910156 0.441406 -4.164062 0.578125 -4.375 C 0.710938 -4.582031 0.90625 -4.742188 1.15625 -4.859375 C 1.40625 -4.972656 1.703125 -5.03125 2.046875 -5.03125 C 2.304688 -5.03125 2.550781 -5 2.78125 -4.9375 C 3.019531 -4.875 3.265625 -4.785156 3.515625 -4.671875 L 3.1875 -3.859375 C 2.957031 -3.953125 2.75 -4.023438 2.5625 -4.078125 C 2.382812 -4.128906 2.203125 -4.15625 2.015625 -4.15625 C 1.890625 -4.15625 1.78125 -4.132812 1.6875 -4.09375 C 1.59375 -4.050781 1.519531 -3.988281 1.46875 -3.90625 C 1.425781 -3.832031 1.40625 -3.742188 1.40625 -3.640625 C 1.40625 -3.523438 1.4375 -3.425781 1.5 -3.34375 C 1.570312 -3.269531 1.675781 -3.195312 1.8125 -3.125 C 1.957031 -3.050781 2.132812 -2.960938 2.34375 -2.859375 C 2.59375 -2.734375 2.804688 -2.609375 2.984375 -2.484375 C 3.160156 -2.359375 3.296875 -2.207031 3.390625 -2.03125 C 3.492188 -1.851562 3.546875 -1.632812 3.546875 -1.375 Z M 3.546875 -1.375 "></path></g></g></g><g fill="#0a0a0a" fill-opacity="1"><g transform="translate(18.188, 8.380278)"><g><path d="M 0.625 0 L 0.625 -4.953125 L 1.671875 -4.953125 L 1.671875 0 Z M 0.625 0 "></path></g></g></g><g fill="#0a0a0a" fill-opacity="1"><g transform="translate(20.130185, 8.380278)"><g><path d="M 2.5 -2.78125 L 4.46875 -2.78125 L 4.46875 -0.21875 C 4.207031 -0.125 3.9375 -0.0507812 3.65625 0 C 3.375 0.0390625 3.054688 0.0625 2.703125 0.0625 C 2.210938 0.0625 1.796875 -0.03125 1.453125 -0.21875 C 1.109375 -0.414062 0.847656 -0.703125 0.671875 -1.078125 C 0.492188 -1.460938 0.40625 -1.929688 0.40625 -2.484375 C 0.40625 -3.003906 0.503906 -3.453125 0.703125 -3.828125 C 0.898438 -4.210938 1.191406 -4.507812 1.578125 -4.71875 C 1.960938 -4.925781 2.429688 -5.03125 2.984375 -5.03125 C 3.253906 -5.03125 3.515625 -5 3.765625 -4.9375 C 4.023438 -4.882812 4.257812 -4.8125 4.46875 -4.71875 L 4.109375 -3.875 C 3.960938 -3.957031 3.789062 -4.023438 3.59375 -4.078125 C 3.394531 -4.128906 3.191406 -4.15625 2.984375 -4.15625 C 2.679688 -4.15625 2.414062 -4.082031 2.1875 -3.9375 C 1.96875 -3.800781 1.796875 -3.601562 1.671875 -3.34375 C 1.546875 -3.09375 1.484375 -2.800781 1.484375 -2.46875 C 1.484375 -2.144531 1.523438 -1.859375 1.609375 -1.609375 C 1.703125 -1.359375 1.84375 -1.160156 2.03125 -1.015625 C 2.21875 -0.878906 2.46875 -0.8125 2.78125 -0.8125 C 2.925781 -0.8125 3.050781 -0.816406 3.15625 -0.828125 C 3.257812 -0.835938 3.351562 -0.851562 3.4375 -0.875 L 3.4375 -1.90625 L 2.5 -1.90625 Z M 2.5 -2.78125 "></path></g></g></g><g fill="#0a0a0a" fill-opacity="1"><g transform="translate(24.798296, 8.380278)"><g><path d="M 5.015625 0 L 3.6875 0 L 1.53125 -3.75 L 1.5 -3.75 C 1.507812 -3.59375 1.515625 -3.429688 1.515625 -3.265625 C 1.523438 -3.109375 1.53125 -2.953125 1.53125 -2.796875 C 1.539062 -2.640625 1.550781 -2.484375 1.5625 -2.328125 L 1.5625 0 L 0.625 0 L 0.625 -4.953125 L 1.953125 -4.953125 L 4.09375 -1.25 L 4.125 -1.25 C 4.113281 -1.394531 4.101562 -1.539062 4.09375 -1.6875 C 4.09375 -1.84375 4.085938 -1.992188 4.078125 -2.140625 C 4.078125 -2.296875 4.078125 -2.453125 4.078125 -2.609375 L 4.078125 -4.953125 L 5.015625 -4.953125 Z M 5.015625 0 "></path></g></g></g></g></g></svg>